<svg width="442" height="446" viewBox="0 0 442 446" fill="none" xmlns="http://www.w3.org/2000/svg">
<path fill-rule="evenodd" clip-rule="evenodd" d="M0.0532227 255.52L105.105 194.864L210.163 255.52L105.105 316.171L0.0532227 255.52Z" fill="white"/>
<path fill-rule="evenodd" clip-rule="evenodd" d="M112.106 190.813L217.158 130.163L322.216 190.813L217.158 251.469L112.106 190.813Z" fill="white"/>
<path fill-rule="evenodd" clip-rule="evenodd" d="M224.173 255.52L329.225 194.864L434.283 255.52L329.225 316.171L224.173 255.52Z" fill="white"/>
<path fill-rule="evenodd" clip-rule="evenodd" d="M224.173 126.12L329.225 65.464L434.283 126.12L329.225 186.771L224.173 126.12Z" fill="white"/>
<path fill-rule="evenodd" clip-rule="evenodd" d="M112.106 61.4267L217.158 0.776001L322.216 61.4267L217.158 122.083L112.106 61.4267Z" fill="white"/>
<path fill-rule="evenodd" clip-rule="evenodd" d="M0.0532227 263.613L105.105 324.264V445.571L0.0532227 384.915V263.613Z" fill="white"/>
<path fill-rule="evenodd" clip-rule="evenodd" d="M112.106 69.5067L210.158 126.121L112.106 182.725V69.5067Z" fill="white"/>
<path fill-rule="evenodd" clip-rule="evenodd" d="M434.28 134.213L336.228 190.817L434.28 247.432V134.213Z" fill="white"/>
<path fill-rule="evenodd" clip-rule="evenodd" d="M224.173 263.613L329.225 324.264V445.571L224.173 384.915V263.613Z" fill="white"/>
<path fill-rule="evenodd" clip-rule="evenodd" d="M217.16 259.573L112.108 320.224V441.531L217.16 380.875V259.573Z" fill="white"/>
<path fill-rule="evenodd" clip-rule="evenodd" d="M441.28 259.573L336.228 320.224V441.531L441.28 380.875V259.573Z" fill="white"/>
</svg>
